<?xml version="1.0" encoding="UTF-8"?>
<svg xmlns="http://www.w3.org/2000/svg" width="32" height="32" viewBox="0 0 32 32">
  <!-- Background Circle -->
  <circle cx="16" cy="16" r="16" fill="#D4AF37"/>
  
  <!-- Letters -->
  <path d="M12.5 22V10h4.2c1.3 0 2.3.3 3 .8.7.5 1 1.3 1 2.2 0 .6-.2 1.1-.5 1.6-.3.4-.8.7-1.4.9v.1c.7.1 1.3.4 1.7.9.4.5.6 1.1.6 1.8 0 1-.4 1.8-1.1 2.4-.7.6-1.7.9-2.9.9h-4.6zm2.2-7h1.8c.6 0 1-.1 1.3-.4.3-.3.5-.6.5-1.1 0-.9-.6-1.3-1.7-1.3h-1.9V15zm0 1.8v3.1h2c.6 0 1-.1 1.4-.4.3-.3.5-.7.5-1.1 0-.5-.2-.9-.5-1.1-.3-.3-.8-.4-1.4-.4h-2z" fill="#FFF"/>
</svg> 